<?xml version="1.0"?>
<svg xmlns="http://www.w3.org/2000/svg" id="Layer_1" enable-background="new 0 0 64 64" height="512px" viewBox="0 0 64 64" width="512px" class=""><g><g><g><g><path d="m47 16h-1.101c-2.673 0-4.011-3.231-2.121-5.121l.778-.778c.781-.781.781-2.047 0-2.828l-2.828-2.828c-.391-.391-.902-.586-1.414-.586h-4c-.512 0-1.024.195-1.414.586l-.778.778c-.04.04-.084.07-.125.108-.597-.529-.997-1.295-.997-2.231v-1.1c0-1.105-.895-2-2-2h-8c-1.105 0-2 .895-2 2v1.1c0 .935-.4 1.702-.996 2.229-.041-.037-.085-.068-.125-.108l-.779-.777c-.391-.391-.902-.586-1.414-.586h-4c-.512 0-1.024.195-1.414.586l-2.828 2.828c-.781.781-.781 2.047 0 2.828l.778.778c1.89 1.891.551 5.122-2.121 5.122h-1.101c-1.105 0-2 .895-2 2v4c0 1.105.895 2 2 2h1.101c2.673 0 4.011 3.231 2.121 5.121l-.778.778c-.781.781-.781 2.047 0 2.828l2.828 2.828c.391.391.902.586 1.414.586h4c.512 0 1.024-.195 1.414-.586l.778-.778c.04-.04.084-.07.125-.108.597.529.997 1.295.997 2.23v1.101c0 1.105.895 2 2 2h8c1.105 0 2-.895 2-2v-1.101c0-.935.4-1.702.996-2.229.041.037.085.068.125.108l.778.778c.391.391.902.586 1.414.586h4c.512 0 1.024-.195 1.414-.586l2.828-2.828c.781-.781.781-2.047 0-2.828l-.778-.778c-1.889-1.891-.55-5.122 2.122-5.122h1.101c1.105 0 2-.895 2-2v-4c0-1.105-.895-2-2-2zm-28 4c0-4.838 3.436-8.873 8-9.799 4.564.927 8 4.961 8 9.799s-3.436 8.873-8 9.799c-4.564-.926-8-4.961-8-9.799z" fill="#5c76b2" data-original="#5C76B2" class=""/></g><g><path d="m43 16h-1.101c-2.673 0-4.011-3.231-2.121-5.121l.778-.778c.781-.781.781-2.047 0-2.828l-2.828-2.828c-.781-.781-2.047-.781-2.828 0l-.778.778c-1.891 1.889-5.122.55-5.122-2.123v-1.1c0-1.105-.895-2-2-2h-4c-1.105 0-2 .895-2 2v1.1c0 2.673-3.231 4.011-5.121 2.121l-.779-.777c-.781-.781-2.047-.781-2.828 0l-2.828 2.828c-.781.781-.781 2.047 0 2.828l.778.778c1.89 1.891.551 5.122-2.121 5.122h-1.101c-1.105 0-2 .895-2 2v4c0 1.105.895 2 2 2h1.101c2.673 0 4.011 3.231 2.121 5.121l-.778.778c-.781.781-.781 2.047 0 2.828l2.828 2.828c.781.781 2.047.781 2.828 0l.778-.778c1.89-1.89 5.121-.551 5.121 2.121v1.102c0 1.105.895 2 2 2h4c1.105 0 2-.895 2-2v-1.101c0-2.673 3.231-4.011 5.121-2.121l.778.778c.781.781 2.047.781 2.828 0l2.828-2.828c.781-.781.781-2.047 0-2.828l-.778-.778c-1.888-1.891-.549-5.122 2.123-5.122h1.101c1.105 0 2-.895 2-2v-4c0-1.105-.895-2-2-2zm-18 14c-5.523 0-10-4.477-10-10s4.477-10 10-10 10 4.477 10 10-4.477 10-10 10z" fill="#6fa4d8" data-original="#6FA4D8" class=""/></g></g><g><g><path d="m50 47.5h-.343c-1.782 0-2.674-2.154-1.414-3.414l.243-.243c.391-.391.391-1.024 0-1.414l-1.414-1.414c-.195-.195-.451-.293-.707-.293h-4c-.053 0-.107.007-.159.015-.131-.262-.206-.562-.206-.894v-.343c0-.552-.448-1-1-1h-6c-.552 0-1 .448-1 1v.343c0 .332-.075.632-.205.894-.053-.008-.106-.015-.159-.015h-4c-.256 0-.512.098-.707.293l-1.414 1.414c-.391.391-.391 1.024 0 1.414l.243.243c1.26 1.26.368 3.414-1.414 3.414h-.344c-.552 0-1 .448-1 1v2c0 .552.448 1 1 1h.343c1.782 0 2.674 2.154 1.414 3.414l-.243.243c-.391.391-.391 1.024 0 1.414l1.414 1.414c.195.195.451.293.707.293h4c.053 0 .107-.007.159-.015.131.262.206.562.206.894v.343c0 .552.448 1 1 1h6c.552 0 1-.448 1-1v-.343c0-.332.075-.632.205-.894.053.008.106.015.159.015h4c.256 0 .512-.098.707-.293l1.414-1.414c.391-.391.391-1.024 0-1.414l-.243-.243c-1.26-1.26-.368-3.414 1.414-3.414h.344c.552 0 1-.448 1-1v-2c0-.552-.448-1-1-1zm-12 7.119c-2.047-.801-3.5-2.788-3.5-5.119s1.453-4.319 3.5-5.119c2.047.801 3.5 2.788 3.5 5.119s-1.453 4.319-3.5 5.119z" fill="#f68820" data-original="#F68820" class="active-path" style="fill:#99CC66" data-old_color="#f68820"/></g><g><path d="m46 47.5h-.343c-1.782 0-2.674-2.154-1.414-3.414l.243-.243c.391-.391.391-1.024 0-1.414l-1.414-1.414c-.391-.391-1.024-.391-1.414 0l-.243.243c-1.261 1.259-3.415.367-3.415-1.415v-.343c0-.552-.448-1-1-1h-2c-.552 0-1 .448-1 1v.343c0 1.782-2.154 2.674-3.414 1.414l-.243-.243c-.391-.391-1.024-.391-1.414 0l-1.414 1.414c-.391.391-.391 1.024 0 1.414l.243.243c1.26 1.26.368 3.414-1.414 3.414h-.344c-.552 0-1 .448-1 1v2c0 .552.448 1 1 1h.343c1.782 0 2.674 2.154 1.414 3.414l-.243.243c-.391.391-.391 1.024 0 1.414l1.414 1.414c.391.391 1.024.391 1.414 0l.243-.243c1.26-1.26 3.414-.368 3.414 1.414v.345c0 .552.448 1 1 1h2c.552 0 1-.448 1-1v-.343c0-1.782 2.154-2.674 3.414-1.414l.243.243c.391.391 1.024.391 1.414 0l1.414-1.414c.391-.391.391-1.024 0-1.414l-.243-.243c-1.26-1.26-.368-3.414 1.414-3.414h.345c.552 0 1-.448 1-1v-2c0-.553-.448-1.001-1-1.001zm-10 7.5c-3.038 0-5.5-2.462-5.5-5.5s2.462-5.5 5.5-5.5 5.5 2.462 5.5 5.5-2.462 5.5-5.5 5.5z" fill="#fbbe18" data-original="#FBBE18" class="" style="fill:#BEE794" data-old_color="#fbbe18"/></g></g><g><g><path d="m17 20h-4c-6.627 0-12 5.373-12 12s5.373 12 12 12h4c6.627 0 12-5.373 12-12s-5.373-12-12-12z" fill="#353744" data-original="#353744"/></g><g><path d="m13 62h4v-16h-4c-.552 0-1 .448-1 1v14c0 .552.448 1 1 1z" fill="#55525b" data-original="#55525B" class=""/></g><g><path d="m15 62h2c.552 0 1-.448 1-1v-14c0-.552-.448-1-1-1h-2z" fill="#353744" data-original="#353744"/></g><g><circle cx="13" cy="32" fill="#55525b" r="12" data-original="#55525B" class=""/></g><g><circle cx="13" cy="32" fill="#dbdee3" r="8" data-original="#DBDEE3"/></g><g><path d="m13 44h4v2h-4z" fill="#dbdee3" data-original="#DBDEE3"/></g><g><path d="m15 44h2v2h-2z" fill="#b3b4b6" data-original="#B3B4B6"/></g><g><path d="m13 44h2v1h-2z" fill="#b3b4b6" data-original="#B3B4B6"/></g><g><path d="m15 64c-1.105 0-2-.895-2-2h4c0 1.105-.895 2-2 2z" fill="#dbdee3" data-original="#DBDEE3"/></g><g><path d="m15 64v-2h2c0 1.105-.895 2-2 2z" fill="#b3b4b6" data-original="#B3B4B6"/></g></g><g><g><path d="m62 32h-.072c-1.54 0-2.502-1.667-1.732-3l.036-.062c.276-.478.112-1.09-.366-1.366l-1.732-1c-.158-.091-.329-.13-.499-.13v-.004h-2v.004c-.346 0-.682.175-.867.496l-.036.062c-.187.324-.442.567-.732.733-.29-.167-.545-.41-.732-.733l-.036-.062c-.185-.321-.521-.496-.867-.496v-.004h-2v.004c-.17 0-.342.039-.499.13l-1.732 1c-.478.276-.642.888-.366 1.366l.036.062c.77 1.333-.192 3-1.732 3h-.072c-.552 0-1 .448-1 1v2c0 .552.448 1 1 1h.072c1.54 0 2.502 1.667 1.732 3l-.036.062c-.276.478-.112 1.09.366 1.366l1.732 1c.158.091.329.13.499.13v.004h2v-.004c.346 0 .682-.175.867-.496l.036-.062c.187-.324.442-.567.732-.733.29.167.545.41.732.733l.036.062c.185.321.521.496.867.496v.004h2v-.004c.17 0 .342-.039.499-.13l1.732-1c.478-.276.642-.888.366-1.366l-.036-.062c-.77-1.333.192-3 1.732-3h.072c.552 0 1-.448 1-1v-2c0-.552-.448-1-1-1zm-10 2c0-1.306.836-2.413 2-2.826 1.164.412 2 1.52 2 2.826s-.836 2.413-2 2.826c-1.164-.413-2-1.52-2-2.826z" fill="#5c76b2" data-original="#5C76B2" class=""/></g><g><path d="m60 32h-.072c-1.54 0-2.502-1.667-1.732-3l.036-.062c.276-.478.112-1.09-.366-1.366l-1.732-1c-.478-.276-1.09-.112-1.366.366l-.036.062c-.77 1.333-2.694 1.333-3.464 0l-.036-.062c-.276-.478-.888-.642-1.366-.366l-1.732 1c-.478.276-.642.888-.366 1.366l.036.062c.77 1.333-.192 3-1.732 3h-.072c-.552 0-1 .448-1 1v2c0 .552.448 1 1 1h.072c1.54 0 2.502 1.667 1.732 3l-.036.062c-.276.478-.112 1.09.366 1.366l1.732 1c.478.276 1.09.112 1.366-.366l.036-.062c.77-1.333 2.694-1.333 3.464 0l.036.062c.276.478.888.642 1.366.366l1.732-1c.478-.276.642-.888.366-1.366l-.036-.062c-.77-1.333.192-3 1.732-3h.072c.552 0 1-.448 1-1v-2c0-.552-.448-1-1-1zm-7 5c-1.657 0-3-1.343-3-3s1.343-3 3-3 3 1.343 3 3-1.343 3-3 3z" fill="#6fa4d8" data-original="#6FA4D8" class=""/></g></g><g><path d="m21 32c0-4.418-3.582-8-8-8-1.459 0-2.822.397-4 1.079v.921c0 1.105.895 2 2 2h1.101c2.673 0 4.011 3.231 2.121 5.121l-.778.778c-.781.781-.781 2.047 0 2.828l2.651 2.651c2.881-1.209 4.905-4.057 4.905-7.378z" fill="#6fa4d8" data-original="#6FA4D8" class=""/></g><g><circle cx="10" cy="29" fill="#fff" r="2" data-original="#FFF" class="" style="fill:#FFFFFF" data-old_color="#fff"/></g></g></g> </svg>
