<?xml version="1.0"?>
<svg xmlns="http://www.w3.org/2000/svg" id="Capa_1" enable-background="new 0 0 512 512" height="512px" viewBox="0 0 512 512" width="512px" class=""><g><path d="m287.007 338.302c-4.272 0-7.734-3.462-7.734-7.734v-113.101c0-4.272 3.462-7.734 7.734-7.734s7.734 3.462 7.734 7.734v113.101c0 4.272-3.462 7.734-7.734 7.734z" fill="#5a3535" data-original="#5A3535" class="" style="fill:#5A3535"/><path d="m374.228 69.31c-27.854-59.964-99.044-85.994-159.008-58.14l-140.232 65.141c-6.519 3.028-5.539 12.671 1.483 14.208 36.628 8.014 69.22 32.441 86.235 69.071l6.095 13.121c17.015 36.629 14.658 77.291-2.845 110.45-3.356 6.357 3.381 13.326 9.9 10.298l140.233-65.14c59.963-27.855 85.993-99.045 58.139-159.009z" fill="#fa6931" data-original="#FA6931" class="" style="fill:#FA6931" data-old_color="#fa6931"/><path d="m374.228 69.31c-17.847-38.42-53.485-62.909-92.561-68.22 8.408 9.012 15.562 19.48 21.037 31.265 27.854 59.964 1.824 131.154-58.139 159.008l-64.236 29.839c.663 21.667-4.383 43.035-14.372 61.959-3.356 6.357 3.381 13.326 9.9 10.298l140.233-65.14c59.962-27.855 85.992-99.045 58.138-159.009z" fill="#fc5327" data-original="#FC5327" class="" style="fill:#FC5327" data-old_color="#fc5327"/><path d="m120.09 314.046-30.303-9.248c-4.402-1.343-7.669 4.097-4.415 7.352l62.867 62.867c2.807 2.807 6.615 4.385 10.585 4.385h204.63c3.422 0 6.558-1.907 8.133-4.944l22.254-42.914c1.897-3.659-.758-8.027-4.88-8.027h-205.402c-21.508-.002-42.898-3.193-63.469-9.471z" fill="#845151" data-original="#845151" class="" style="fill:#845151"/><path d="m388.96 323.515h-14.424l-10.406 20.066c-5.358 10.332-16.027 16.818-27.666 16.818h-202.843l14.617 14.617c2.807 2.807 6.615 4.385 10.585 4.385h204.63c3.422 0 6.558-1.907 8.133-4.944l22.254-42.914c1.898-3.659-.758-8.028-4.88-8.028z" fill="#5a3535" data-original="#5A3535" class="" style="fill:#5A3535"/><circle cx="269.264" cy="115.2" fill="#fbcb80" r="65.621" data-original="#FBCB80" class="" style="fill:#FBCB80" data-old_color="#fbcb80"/><path d="m312.69 66.023c6.231 43.949-12.577 88.52-49.413 114.514 1.973.179 3.967.284 5.987.284 36.242 0 65.621-29.38 65.621-65.621 0-19.585-8.589-37.154-22.195-49.177z" fill="#e7b467" data-original="#E7B467" class="active-path" style="fill:#59CE9A" data-old_color="#e7b467"/><path d="m434.122 483.799h-320.918c-23.234 0-42.068-18.835-42.068-42.068v-12.996c0-23.234 18.835-42.068 42.068-42.068h320.918s-10.444 26.159-10.444 48.566c-.001 22.407 10.444 48.566 10.444 48.566z" fill="#eedfda" data-original="#EEDFDA" class="" style="fill:#EEDFDA"/><path d="m327.324 463.17h-70.851c-4.272 0-7.734-3.462-7.734-7.734s3.462-7.734 7.734-7.734h70.851c4.272 0 7.734 3.462 7.734 7.734s-3.462 7.734-7.734 7.734z" fill="#c9beb9" data-original="#C9BEB9" class="" style="fill:#C9BEB9"/><path d="m434.122 386.667h-36.819s-10.444 26.159-10.444 48.566 10.444 48.566 10.444 48.566h36.819s-10.444-26.159-10.444-48.566c-.001-22.406 10.444-48.566 10.444-48.566z" fill="#ded0cb" data-original="#DED0CB" style="fill:#DED0CB" class=""/><path d="m440.864 491.533h-327.66c-27.461 0-49.802-22.341-49.802-49.802v-12.995c0-27.461 22.34-49.803 49.802-49.803h327.66c4.272 0 7.734 3.462 7.734 7.734s-3.462 7.734-7.734 7.734h-327.66c-18.932 0-34.334 15.402-34.334 34.335v12.995c0 18.932 15.402 34.334 34.334 34.334h327.66c4.272 0 7.734 3.462 7.734 7.734s-3.463 7.734-7.734 7.734z" fill="#fc5327" data-original="#FC5327" class="" style="fill:#FC5327" data-old_color="#fc5327"/><path d="m175.89 511.403-21.706-15.874-21.706 15.874c-2.028 1.483-4.881.035-4.881-2.477v-80.142h53.173v80.142c.001 2.511-2.852 3.96-4.88 2.477z" fill="#e7b467" data-original="#E7B467" class="active-path" style="fill:#59CE9A" data-old_color="#e7b467"/><path d="m154.184 428.783v66.746l21.706 15.874c2.028 1.483 4.881.035 4.881-2.477v-80.142h-26.587z" fill="#d7a85f" data-original="#D7A85F" class="" style="fill:#99CC66" data-old_color="#d7a85f"/><path d="m291.899 436.517h-175.816c-4.272 0-7.734-3.462-7.734-7.734s3.462-7.734 7.734-7.734h175.816c4.272 0 7.734 3.462 7.734 7.734s-3.462 7.734-7.734 7.734z" fill="#c9beb9" data-original="#C9BEB9" class="" style="fill:#C9BEB9"/></g> </svg>
